<?xml version="1.0" encoding="UTF-8" standalone="no"?>
<!-- Created with Inkscape (http://www.inkscape.org/) -->

<svg
   xmlns:dc="http://purl.org/dc/elements/1.1/"
   xmlns:cc="http://creativecommons.org/ns#"
   xmlns:rdf="http://www.w3.org/1999/02/22-rdf-syntax-ns#"
   xmlns:svg="http://www.w3.org/2000/svg"
   xmlns="http://www.w3.org/2000/svg"
   xmlns:sodipodi="http://sodipodi.sourceforge.net/DTD/sodipodi-0.dtd"
   xmlns:inkscape="http://www.inkscape.org/namespaces/inkscape"
   id="svg2985"
   version="1.1"
   inkscape:version="0.48.2 r9819"
   width="347.24375"
   height="318.8975"
   xml:space="preserve"
   sodipodi:docname="na krawedzi LOGO orange.emf"><metadata
     id="metadata2991"><rdf:RDF><cc:Work
         rdf:about=""><dc:format>image/svg+xml</dc:format><dc:type
           rdf:resource="http://purl.org/dc/dcmitype/StillImage" /><dc:title></dc:title></cc:Work></rdf:RDF></metadata><defs
     id="defs2989"><clipPath
       clipPathUnits="userSpaceOnUse"
       id="clipPath2999"><path
         d="m 0,255.118 277.795,0 L 277.795,0 0,0 0,255.118 z"
         id="path3001" /></clipPath><radialGradient
       fx="0"
       fy="0"
       cx="0"
       cy="0"
       r="1"
       gradientUnits="userSpaceOnUse"
       gradientTransform="matrix(15.365616,-15.365616,-15.365616,-15.365616,221.85449,147.92578)"
       spreadMethod="pad"
       id="radialGradient3019"><stop
         style="stop-opacity:1;stop-color:#2e4986"
         offset="0"
         id="stop3021" /><stop
         style="stop-opacity:1;stop-color:#1f254e"
         offset="1"
         id="stop3023" /></radialGradient><radialGradient
       fx="0"
       fy="0"
       cx="0"
       cy="0"
       r="1"
       gradientUnits="userSpaceOnUse"
       gradientTransform="matrix(14.678879,-14.678879,-14.678879,-14.678879,221.85547,147.92529)"
       spreadMethod="pad"
       id="radialGradient3039"><stop
         style="stop-opacity:1;stop-color:#ffffff"
         offset="0"
         id="stop3041" /><stop
         style="stop-opacity:1;stop-color:#c1c2c3"
         offset="1"
         id="stop3043" /></radialGradient><clipPath
       clipPathUnits="userSpaceOnUse"
       id="clipPath3051"><path
         d="m 0,255.118 277.795,0 L 277.795,0 0,0 0,255.118 z"
         id="path3053" /></clipPath></defs><sodipodi:namedview
     pagecolor="#ffffff"
     bordercolor="#666666"
     borderopacity="1"
     objecttolerance="10"
     gridtolerance="10"
     guidetolerance="10"
     inkscape:pageopacity="0"
     inkscape:pageshadow="2"
     inkscape:window-width="1280"
     inkscape:window-height="750"
     id="namedview2987"
     showgrid="false"
     inkscape:zoom="1.6713835"
     inkscape:cx="173.62187"
     inkscape:cy="159.44875"
     inkscape:window-x="-4"
     inkscape:window-y="-4"
     inkscape:window-maximized="1"
     inkscape:current-layer="g2993" /><g
     id="g2993"
     inkscape:groupmode="layer"
     inkscape:label="na krawedzi LOGO"
     transform="matrix(1.25,0,0,-1.25,0,318.8975)"><g
       id="g2995"><g
         id="g2997"
         clip-path="url(#clipPath2999)"><g
           id="g3003"
           transform="translate(220.875,133.6709)"><path
             d="M 0,0 C -0.988,-1.516 -3.359,1.004 -5.336,-0.659 -3.951,0.131 -1.316,-2.306 0,0"
             style="fill:#ffffff;fill-opacity:1;fill-rule:nonzero;stroke:none"
             id="path3005" /></g></g></g><g
       id="g3007"><g
         id="g3009"><g
           id="g3015"><g
             id="g3017"><path
               d="m 206.488,163.291 c -8.484,-8.487 -8.484,-22.245 0,-30.731 l 0,0 c 8.487,-8.486 22.246,-8.486 30.733,0 l 0,0 c 8.484,8.486 8.484,22.244 0,30.731 l 0,0 c -4.243,4.242 -9.805,6.363 -15.367,6.363 l 0,0 c -5.561,0 -11.123,-2.121 -15.366,-6.363"
               style="fill:url(#radialGradient3019);stroke:none"
               id="path3025" /></g></g></g></g><g
       id="g3027"><g
         id="g3029"><g
           id="g3035"><g
             id="g3037"><path
               d="m 207.175,162.604 c -8.107,-8.107 -8.107,-21.252 0,-29.357 l 0,0 c 8.109,-8.108 21.253,-8.108 29.358,-0.003 l 0,0 c 8.108,8.108 8.108,21.253 0,29.361 l 0,0 c -4.052,4.053 -9.364,6.08 -14.677,6.079 l 0,0 c -5.313,0 -10.626,-2.026 -14.681,-6.08"
               style="fill:#ff6600;stroke:none"
               id="path3045" /></g></g></g></g><g
       id="g3047"><g
         id="g3049"
         clip-path="url(#clipPath3051)"><g
           id="g3055"
           transform="translate(237.8184,153.5898)"><path
             d="m 0,0 c 0,-7.179 -31.928,-7.179 -31.928,0 0,7.18 7.149,13 15.965,13 C -7.146,13 0,7.18 0,0"
             style="fill:#ffffff;fill-opacity:1;fill-rule:nonzero;stroke:none"
             id="path3057" /></g><g
           id="g3059"
           transform="translate(249.5313,149.4624)"><path
             d="m 0,0 -0.49,0.312 -17.535,-13.484 -0.151,0.714 17.51,13.472 1.828,-1.45 -18.824,-14.45 -0.242,1.142 L 0,0 z"
             style="fill:#253769;fill-opacity:1;fill-rule:nonzero;stroke:none"
             id="path3061" /></g><g
           id="g3063"
           transform="translate(197.5488,111.0527)"><path
             d="M 0,0 22.354,17.16 22.32,16.303 0.535,-0.422 0.855,-0.838 22.293,15.618 22.238,14.248 1.232,-1.877 C -0.418,-3.045 -3.592,-3.563 -5.617,-1.912 -3.379,-1.986 -1.139,-0.766 0,0"
             style="fill:#253769;fill-opacity:1;fill-rule:nonzero;stroke:none"
             id="path3065" /></g><g
           id="g3067"
           transform="translate(198.4043,110.2148)"><path
             d="M 0,0 -0.32,0.416 21.465,17.141 21.438,16.456 0,0 z"
             style="fill:#253769;fill-opacity:1;fill-rule:nonzero;stroke:none"
             id="path3069" /></g><g
           id="g3071"
           transform="translate(249.5313,149.4624)"><path
             d="m 0,0 -17.904,-13.744 -0.121,0.572 L -0.49,0.312 0,0 z"
             style="fill:#253769;fill-opacity:1;fill-rule:nonzero;stroke:none"
             id="path3073" /></g><g
           id="g3075"
           transform="translate(194.3887,110.7402)"><path
             d="M 0,0 60.447,32.315 58.469,33.545 -2.059,1.439 C -4.279,0.414 -6.715,-0.289 -9.217,0.053 -8.164,-2.023 -4.279,-2.287 0,0"
             style="fill:#253769;fill-opacity:1;fill-rule:nonzero;stroke:none"
             id="path3077" /></g><g
           id="g3079"
           transform="translate(253.3496,143.4253)"><path
             d="m 0,0 -59.305,-31.673 -0.248,0.465 L -0.488,0.377 0,0 z"
             style="fill:#ffffff;fill-opacity:1;fill-rule:nonzero;stroke:none"
             id="path3081" /></g><g
           id="g3083"
           transform="translate(230.5293,136.9824)"><path
             d="M 0,0 0.658,-3.096 2.664,-4.087 0.008,-5.503 -1.975,-2.791 0,0 z"
             style="fill:#253769;fill-opacity:1;fill-rule:nonzero;stroke:none"
             id="path3085" /></g><g
           id="g3087"
           transform="translate(229.1934,136.5576)"><path
             d="M 0,0 -0.988,-1.714 -1.582,-0.857 -0.199,1.777 0,0 z"
             style="fill:#253769;fill-opacity:1;fill-rule:nonzero;stroke:none"
             id="path3089" /></g><g
           id="g3091"
           transform="translate(220.6465,136.5234)"><path
             d="m 0,0 -9.09,9.264 0.787,1.529 c 0,0 5.227,3.169 13.848,4.986 l -1.889,0.94 6.867,-0.348 0.125,-0.592 c 0,0 1.174,-7.799 -11.851,-7.274 L -5.41,9.744 -5.334,9.144 -5.596,8.806 1.537,0.698 0,0 z"
             style="fill:#ffffff;fill-opacity:1;fill-rule:nonzero;stroke:none"
             id="path3093" /></g><g
           id="g3095"
           transform="translate(214.9844,145.4429)"><path
             d="m 0,0 7.199,-8.305 2.467,0 c 0,0 -2.367,8.305 -9.111,9.16 L 0.102,0.705 0.354,0.251 0,0 z"
             style="fill:#ffffff;fill-opacity:1;fill-rule:nonzero;stroke:none"
             id="path3097" /></g><g
           id="g3099"
           transform="translate(213.8789,156.4155)"><path
             d="m 0,0 -1.719,0.203 -0.119,-0.554 -1.855,-0.571 -1.635,1.422 0.992,2.483 1.107,0.459 3.958,-0.538 -1.026,-0.631 0,-0.561 C -1.186,1.712 -1.285,0.231 0,0"
             style="fill:#253769;fill-opacity:1;fill-rule:nonzero;stroke:none"
             id="path3101" /></g><g
           id="g3103"
           transform="translate(225.0918,130.4199)"><path
             d="M 0,0 -2.654,0.589 -2.389,1.579 0.178,1.011 0.338,1.737 -2.195,2.3 -2.18,2.36 -5.252,5.829 -2.602,7.164 0.148,6.841 0.391,6.519 -2.439,4.75 -2.045,4.119 0.844,5.924 3.023,3.055 0.061,-1.108 3.666,2.21 4.693,0.719 -3.221,-3.496 -3.574,-3.02 -2.848,-0.13 -0.16,-0.726 0,0 z"
             style="fill:#253769;fill-opacity:1;fill-rule:nonzero;stroke:none"
             id="path3105" /></g><g
           id="g3107"
           transform="translate(222.6523,135.1699)"><path
             d="M 0,0 2.83,1.769 3.283,1.174 0.395,-0.631 0,0 z"
             style="fill:#ffffff;fill-opacity:1;fill-rule:nonzero;stroke:none"
             id="path3109" /></g><g
           id="g3111"
           transform="translate(225.5195,136.957)"><path
             d="M 0,0 0.609,0.374 1.018,-0.219 0.426,-0.623 0,0 z"
             style="fill:#253769;fill-opacity:1;fill-rule:nonzero;stroke:none"
             id="path3113" /></g><g
           id="g3115"
           transform="translate(225.2695,131.4307)"><path
             d="M 0,0 -2.566,0.568 -2.373,1.289 0.16,0.727 0,0 z"
             style="fill:#ffffff;fill-opacity:1;fill-rule:nonzero;stroke:none"
             id="path3117" /></g><g
           id="g3119"
           transform="translate(222.6992,132.0068)"><path
             d="M 0,0 -0.66,0.163 -0.467,0.883 0.162,0.726 0,0 z"
             style="fill:#253769;fill-opacity:1;fill-rule:nonzero;stroke:none"
             id="path3121" /></g><g
           id="g3123"
           transform="translate(222.2715,130.2773)"><path
             d="M 0,0 -0.658,0.191 -0.465,0.91 0.16,0.727 0,0 z"
             style="fill:#253769;fill-opacity:1;fill-rule:nonzero;stroke:none"
             id="path3125" /></g><g
           id="g3127"
           transform="translate(225.0918,130.4199)"><path
             d="M 0,0 -0.16,-0.726 -2.848,-0.13 -2.654,0.589 0,0 z"
             style="fill:#ffffff;fill-opacity:1;fill-rule:nonzero;stroke:none"
             id="path3129" /></g><g
           id="g3131"
           transform="translate(228.1152,133.4746)"><path
             d="M 0,0 0.643,-0.845 -2.963,-4.163 0,0 z"
             style="fill:#ffffff;fill-opacity:1;fill-rule:nonzero;stroke:none"
             id="path3133" /></g><g
           id="g3135"
           transform="translate(219.4727,134.8945)"><path
             d="M 0,0 2.234,-2.355 1.049,-7.231 1.004,-7.243 1.189,-3.08 -1.018,-0.512 0,0 z"
             style="fill:#253769;fill-opacity:1;fill-rule:nonzero;stroke:none"
             id="path3137" /></g><g
           id="g3139"
           transform="translate(259.7383,168.6675)"><path
             d="m 0,0 0.076,-0.374 -2.355,-0.607 c -0.006,0.144 -0.026,0.283 -0.057,0.413 L 0,0 z"
             style="fill:#253769;fill-opacity:1;fill-rule:nonzero;stroke:none"
             id="path3141" /></g><g
           id="g3143"
           transform="translate(214.2324,157.6235)"><path
             d="m 0,0 41.24,10.009 0,-0.019 c 0,-0.149 0.016,-0.293 0.045,-0.428 L 0.248,-1.024 0,0 z"
             style="fill:#253769;fill-opacity:1;fill-rule:nonzero;stroke:none"
             id="path3145" /></g><g
           id="g3147"
           transform="translate(257.4609,167.6133)"><path
             d="m 0,0 c 0,-0.797 -0.445,-1.443 -0.994,-1.443 -0.447,0 -0.824,0.426 -0.949,1.015 l 1.941,0.501 C -0.002,0.048 0,0.024 0,0"
             style="fill:#253769;fill-opacity:1;fill-rule:nonzero;stroke:none"
             id="path3149" /></g><g
           id="g3151"
           transform="translate(256.4668,169.0566)"><path
             d="m 0,0 c 0.432,0 0.797,-0.399 0.936,-0.957 l -1.93,-0.467 C -0.984,-0.636 -0.543,0 0,0"
             style="fill:#253769;fill-opacity:1;fill-rule:nonzero;stroke:none"
             id="path3153" /></g><g
           id="g3155"
           transform="translate(217.3926,160.8862)"><path
             d="M 0,0 0.643,0.453 0.648,0.46 2.463,-1.418 1.604,-1.663 0,0 z"
             style="fill:#253769;fill-opacity:1;fill-rule:nonzero;stroke:none"
             id="path3157" /></g><g
           id="g3159"
           transform="translate(223.0664,165.3413)"><path
             d="M 0,0 0.539,2.547 C 1.383,8.958 9.244,3.996 4.502,-3.908 L -3.211,-5.874 -5.025,-3.995 0,0 z"
             style="fill:#253769;fill-opacity:1;fill-rule:nonzero;stroke:none"
             id="path3161" /></g><g
           id="g3163"
           transform="translate(217.5723,156.2017)"><path
             d="m 0,0 -1.24,-0.527 -2.405,0.658 0.012,2.07 1.778,1.04 L -0.83,5.385 1.424,3.022 0.01,2.266 C 0.242,1.153 -0.162,0.906 -0.162,0.906 L 0,0 z"
             style="fill:#253769;fill-opacity:1;fill-rule:nonzero;stroke:none"
             id="path3165" /></g><g
           id="g3167"
           transform="translate(229.4395,168.7666)"><path
             d="m 0,0 c 1.07,-3.492 -0.488,-6.126 -1.809,-7.336 l 4.483,1.127 C 2.123,-2.306 0,0 0,0"
             style="fill:#253769;fill-opacity:1;fill-rule:nonzero;stroke:none"
             id="path3169" /></g><g
           id="g3171"
           transform="translate(232.2578,161.1655)"><path
             d="m 0,0 c 0.125,-1.05 0.232,-3.735 -0.65,-6.517 l -8.52,0.658 -0.957,3.297 L 0,0 z"
             style="fill:#253769;fill-opacity:1;fill-rule:nonzero;stroke:none"
             id="path3173" /></g><g
           id="g3175"
           transform="translate(229.918,159.4785)"><path
             d="M 0,0 -5.994,-3.03 -0.396,-0.79 0,0 z"
             style="fill:#ffffff;fill-opacity:1;fill-rule:nonzero;stroke:none"
             id="path3177" /></g><g
           id="g3179"
           transform="translate(230.6406,158.293)"><path
             d="m 0,0 -3.227,-1.383 2.668,-0.791 0.955,0.462 -2.701,0.395 L 0,0 z"
             style="fill:#ffffff;fill-opacity:1;fill-rule:nonzero;stroke:none"
             id="path3181" /></g><g
           id="g3183"
           transform="translate(220.0371,175.0264)"><path
             d="m 0,0 c 0.875,0 1.582,-0.709 1.582,-1.583 0,-0.875 -0.707,-1.584 -1.582,-1.584 -0.875,0 -1.584,0.709 -1.584,1.584 C -1.584,-0.709 -0.875,0 0,0"
             style="fill:#253769;fill-opacity:1;fill-rule:nonzero;stroke:none"
             id="path3185" /></g><g
           id="g3187"
           transform="translate(216.2578,169.9473)"><path
             d="M 0,0 C 0,2.099 1.703,3.801 3.801,3.801 5.9,3.801 7.602,2.099 7.602,0 L 0,0 z"
             style="fill:#253769;fill-opacity:1;fill-rule:nonzero;stroke:none"
             id="path3189" /></g><g
           id="g3191"
           transform="translate(220.7539,166.249)"><path
             d="M 0,0 -2.084,0.733 -2.885,0.665 -3.443,3.474 c 0,1.7 1.377,3.079 3.078,3.079 1.699,0 3.078,-1.379 3.078,-3.079 L 0,0 z"
             style="fill:#ffffff;fill-opacity:1;fill-rule:nonzero;stroke:none"
             id="path3193" /></g><g
           id="g3195"
           transform="translate(219.5977,168.8945)"><path
             d="M 0,0 -0.824,1.326 3.313,3.9 4.135,2.575 0,0 z"
             style="fill:#253769;fill-opacity:1;fill-rule:nonzero;stroke:none"
             id="path3197" /></g><g
           id="g3199"
           transform="translate(216.4492,169.3589)"><path
             d="M 0,0 C 0.006,0.006 0.016,0.012 0.023,0.018 L 0.025,0.012 C 0.018,0.008 0.008,0.004 0,0"
             style="fill:#253769;fill-opacity:1;fill-rule:nonzero;stroke:none"
             id="path3201" /></g><g
           id="g3203"
           transform="translate(218.9512,169.3828)"><path
             d="m 0,0 c -0.328,0.527 -1.363,0.498 -2.477,-0.012 l -0.002,0.006 C -2.307,0.13 -2.121,0.263 -1.92,0.387 -0.582,1.217 0.818,1.38 1.209,0.75 1.6,0.121 0.832,-1.062 -0.506,-1.892 -0.705,-2.017 -0.908,-2.125 -1.105,-2.218 l -0.006,0.005 C -0.158,-1.441 0.326,-0.527 0,0"
             style="fill:#253769;fill-opacity:1;fill-rule:nonzero;stroke:none"
             id="path3205" /></g><g
           id="g3207"
           transform="translate(217.8457,167.1646)"><path
             d="M 0,0 C -0.01,-0.004 -0.02,-0.009 -0.027,-0.014 -0.02,-0.007 -0.012,0 -0.006,0.005 L 0,0 z"
             style="fill:#253769;fill-opacity:1;fill-rule:nonzero;stroke:none"
             id="path3209" /></g><g
           id="g3211"
           transform="translate(218.9512,169.3828)"><path
             d="m 0,0 c 0.326,-0.527 -0.158,-1.441 -1.111,-2.213 l -1.366,2.201 C -1.363,0.498 -0.328,0.527 0,0"
             style="fill:#f4f4f4;fill-opacity:1;fill-rule:nonzero;stroke:none"
             id="path3213" /></g><g
           id="g3215"
           transform="translate(217.5273,166.9468)"><path
             d="M 0,0 -1.379,2.221 -1.053,2.424 0.326,0.203 0,0 z"
             style="fill:#253769;fill-opacity:1;fill-rule:nonzero;stroke:none"
             id="path3217" /></g><g
           id="g3219"
           transform="translate(217.8496,166.8623)"><path
             d="m 0,0 0.617,0.016 0.19,-0.288 0.316,0.013 0.043,-0.351 0.352,-0.078 C 1.605,-1.334 2.502,-1.382 2.91,-0.6 L 1.221,0.619 C 0.836,0.345 0.23,0.138 -0.012,0.116 L 0,0 z"
             style="fill:#253769;fill-opacity:1;fill-rule:nonzero;stroke:none"
             id="path3221" /></g><g
           id="g3223"
           transform="translate(226.2285,152.2993)"><path
             d="M 0,0 C -0.047,-0.009 -0.006,0.015 -0.051,0.006 -7.42,-1.379 -12.662,-3.634 -15.02,-5.335 l -0.16,-1.564 9.317,-8.643 0.039,0.034 -8.338,8.987 0.133,0.922 C -10.953,-3.317 -2.174,-0.659 0,0"
             style="fill:#253769;fill-opacity:1;fill-rule:nonzero;stroke:none"
             id="path3225" /></g><g
           id="g3227"
           transform="translate(230.8574,154.1255)"><path
             d="M 0,0 0,0.041 -7,0.676 -6.695,-0.454 0,0 z"
             style="fill:#253769;fill-opacity:1;fill-rule:nonzero;stroke:none"
             id="path3229" /></g><g
           id="g3231"
           transform="translate(224.2949,153.2437)"><path
             d="M 0,0 -0.01,0.008 6.844,0.24 6.943,-0.656 0,0 z"
             style="fill:#253769;fill-opacity:1;fill-rule:nonzero;stroke:none"
             id="path3233" /></g><g
           id="g3235"
           transform="translate(231.2285,152.5889)"><path
             d="m 0,0 c 0,0.011 0.01,-0.012 0.01,-0.001 1.775,-5.756 -4.219,-8.193 -11.332,-7.864 -0.53,0.528 -1.319,0.659 -1.319,0.659 C -7.551,-7.087 0.242,-6.334 0,0"
             style="fill:#253769;fill-opacity:1;fill-rule:nonzero;stroke:none"
             id="path3237" /></g><g
           id="g3239"
           transform="translate(214.832,146.1074)"><path
             d="M 0,0 C 5.441,0.066 7.807,-3.099 9.719,-8.39 L 8.361,-8.151 C 6.275,-1.784 4.02,-0.527 0,0"
             style="fill:#253769;fill-opacity:1;fill-rule:nonzero;stroke:none"
             id="path3241" /></g><g
           id="g3243"
           transform="translate(230.041,149.248)"><path
             d="M 0,0 -0.016,-0.026 -3.621,2.903 0.006,2.195 -1.498,1.808 0,0 z"
             style="fill:#253769;fill-opacity:1;fill-rule:nonzero;stroke:none"
             id="path3245" /></g><g
           id="g3247"
           transform="translate(225.498,151.7925)"><path
             d="m 0,0 2.305,-1.91 0.347,-0.288 -0.447,-0.06 c -3.836,-0.52 -11.992,-3.038 -12.902,-3.458 l 0.043,0.332 0.746,-0.615 0.283,-0.233 -0.35,-0.108 -0.636,-0.198 0.088,0.32 7.31,-8.166 -0.293,-0.265 -7.312,8.168 -0.205,0.229 0.294,0.092 0.635,0.198 -0.064,-0.342 -0.748,0.615 -0.242,0.2 0.285,0.131 c 0.849,0.393 7.924,2.587 12.049,3.336 L 0,0 z"
             style="fill:#253769;fill-opacity:1;fill-rule:nonzero;stroke:none"
             id="path3249" /></g><g
           id="g3251"
           transform="translate(226.2285,152.2993)"><path
             d="M 0,0 -1.943,0.952 -1.719,0.191 0,0 z"
             style="fill:#253769;fill-opacity:1;fill-rule:nonzero;stroke:none"
             id="path3253" /></g><g
           id="g3255"
           transform="translate(219.5547,136.2666)"><path
             d="M 0,0 0.043,0.019 -8.086,7.354 -8.152,6.169 0,0 z"
             style="fill:#253769;fill-opacity:1;fill-rule:nonzero;stroke:none"
             id="path3257" /></g><g
           id="g3259"
           transform="translate(224.9316,164.0015)"><path
             d="M 0,0 -6.104,-2.723 -1.08,0.675 -0.42,4.54 0,0 z"
             style="fill:#ffffff;fill-opacity:1;fill-rule:nonzero;stroke:none"
             id="path3261" /></g><g
           id="g3263"
           transform="translate(210.8438,159.1641)"><path
             d="M 0,0 C -0.199,-0.292 0.016,-0.788 0.482,-1.107 0.949,-1.427 1.49,-1.448 1.689,-1.156 1.891,-0.863 1.674,-0.367 1.207,-0.047 0.74,0.271 0.199,0.293 0,0"
             style="fill:#ffffff;fill-opacity:1;fill-rule:nonzero;stroke:none"
             id="path3265" /></g><g
           id="g3267"
           transform="translate(221.6406,158.0732)"><path
             d="m 0,0 0.586,-1.76 -3.172,-1.586 -4.404,0.904 4.326,0 L 0,0 z"
             style="fill:#253769;fill-opacity:1;fill-rule:nonzero;stroke:none"
             id="path3269" /></g><g
           id="g3271"
           transform="translate(221.0703,143.7939)"><path
             d="m 0,0 -0.643,-4.389 -1.07,1.301 0.58,3.762 L 0,0 z"
             style="fill:#253769;fill-opacity:1;fill-rule:nonzero;stroke:none"
             id="path3273" /></g><g
           id="g3275"
           transform="translate(219.3457,145.0923)"><path
             d="m 0,0 -0.588,-3.842 -1.135,1.081 0.541,3.16 L 0,0 z"
             style="fill:#253769;fill-opacity:1;fill-rule:nonzero;stroke:none"
             id="path3277" /></g><g
           id="g3279"
           transform="translate(193.2207,138.541)"><path
             d="M 0,0 C -0.4,0.547 -0.422,1.214 -0.045,1.489 0.271,1.722 0.77,1.602 1.158,1.231 L 0.059,-0.073 C 0.037,-0.049 0.018,-0.025 0,0"
             style="fill:#253769;fill-opacity:1;fill-rule:nonzero;stroke:none"
             id="path3281" /></g><g
           id="g3283"
           transform="translate(194.6289,138.0518)"><path
             d="m 0,0 c -0.287,-0.21 -0.721,-0.134 -1.086,0.155 l 1.1,1.246 C 0.355,0.873 0.355,0.261 0,0"
             style="fill:#253769;fill-opacity:1;fill-rule:nonzero;stroke:none"
             id="path3285" /></g><g
           id="g3287"
           transform="translate(191.9492,136.8906)"><path
             d="M 0,0 1.33,1.577 C 1.41,1.478 1.5,1.39 1.594,1.316 L 0.238,-0.218 0,0 z"
             style="fill:#253769;fill-opacity:1;fill-rule:nonzero;stroke:none"
             id="path3289" /></g><g
           id="g3291"
           transform="translate(194.3789,139.7725)"><path
             d="M 0,0 14.084,16.65 14.77,16.072 0.264,-0.319 0.205,-0.231 C 0.143,-0.146 0.072,-0.069 0,0"
             style="fill:#253769;fill-opacity:1;fill-rule:nonzero;stroke:none"
             id="path3293" /></g><g
           id="g3295"
           transform="translate(193.8438,139.1387)"><path
             d="m 0,0 0.258,-0.298 -0.559,-0.634 c -0.094,0.074 -0.183,0.161 -0.263,0.261 L 0,0 z"
             style="fill:#253769;fill-opacity:1;fill-rule:nonzero;stroke:none"
             id="path3297" /></g><g
           id="g3299"
           transform="translate(194.3789,139.7725)"><path
             d="M 0,0 C 0.072,-0.069 0.143,-0.146 0.205,-0.231 L 0.264,-0.319 -0.277,-0.932 -0.535,-0.634 0,0 z"
             style="fill:#253769;fill-opacity:1;fill-rule:nonzero;stroke:none"
             id="path3301" /></g><g
           id="g3303"
           transform="translate(216.123,159.2319)"><path
             d="M 0,0 -1.625,-0.988 0.043,-1.273 0.791,-0.308 0,0 z"
             style="fill:#ffffff;fill-opacity:1;fill-rule:nonzero;stroke:none"
             id="path3305" /></g><g
           id="g3307"
           transform="translate(226.8828,162.5688)"><path
             d="M 0,0 -0.484,0.439 0.613,2.284 C 0.658,1.405 0,0 0,0"
             style="fill:#ffffff;fill-opacity:1;fill-rule:nonzero;stroke:none"
             id="path3309" /></g><g
           id="g3311"
           transform="translate(225.2559,172.4932)"><path
             d="M 0,0 -5.514,-5.05 -2.984,-6.895 0,0 z"
             style="fill:#253769;fill-opacity:1;fill-rule:nonzero;stroke:none"
             id="path3313" /></g><g
           id="g3315"
           transform="translate(225.5645,172.1855)"><path
             d="m 0,0 0.57,-1.01 c -0.658,0.088 -1.361,-0.307 -1.361,-0.307 L 0,0 z"
             style="fill:#253769;fill-opacity:1;fill-rule:nonzero;stroke:none"
             id="path3317" /></g><g
           id="g3319"
           transform="translate(210.2832,159.0562)"><path
             d="M 0,0 -0.088,-1.757 1.229,-2.811 -0.703,-1.844 0,0.132"
             style="fill:#ffffff;fill-opacity:1;fill-rule:nonzero;stroke:none"
             id="path3321" /></g><g
           id="g3323"
           transform="translate(219.8086,146.3916)"><path
             d="M 0,0 -0.004,0.081 -4.85,0.028 -5.025,-0.261 -3.367,-0.465 0,0 z"
             style="fill:#253769;fill-opacity:1;fill-rule:nonzero;stroke:none"
             id="path3325" /></g><g
           id="g3327"
           transform="translate(219.1895,162.9038)"><path
             d="M 0,0 0.012,-0.01 2.668,2.289 2.354,2.503 0,0 z"
             style="fill:#253769;fill-opacity:1;fill-rule:nonzero;stroke:none"
             id="path3329" /></g><g
           id="g3331"
           transform="translate(31.478,145.8755)"><path
             d="m 0,0 2.063,9.591 -9.626,0 L -9.625,0 c -0.183,-0.883 -0.653,-1.637 -1.409,-2.261 -0.757,-0.624 -1.578,-0.936 -2.464,-0.936 l 3.415,15.996 12.833,0 c 0.764,0 1.387,-0.24 1.868,-0.72 C 5.099,11.6 5.34,10.994 5.34,10.262 5.34,10.049 5.317,9.828 5.271,9.6 L 2.544,-3.197 c -0.764,0 -1.391,0.24 -1.879,0.719 -0.489,0.48 -0.734,1.085 -0.734,1.816 0,0.213 0.023,0.433 0.069,0.662"
             style="fill:#253769;fill-opacity:1;fill-rule:nonzero;stroke:none"
             id="path3333" /></g><g
           id="g3335"
           transform="translate(52.1255,152.2808)"><path
             d="m 0,0 0.688,3.186 -9.626,0 L -9.625,0 0,0 z m -1.375,-6.405 0.687,3.197 -9.625,0 L -11,-6.405 c -0.183,-0.883 -0.653,-1.637 -1.409,-2.261 -0.757,-0.624 -1.578,-0.936 -2.464,-0.936 l 2.727,12.797 c 0.184,0.883 0.657,1.637 1.421,2.262 0.764,0.624 1.589,0.937 2.475,0.937 l 9.625,0 c 0.764,0 1.387,-0.24 1.868,-0.72 C 3.724,5.194 3.965,4.588 3.965,3.857 3.965,3.644 3.942,3.423 3.896,3.195 L 1.169,-9.602 c -0.764,0 -1.391,0.24 -1.879,0.719 -0.489,0.48 -0.734,1.085 -0.734,1.816 0,0.213 0.023,0.433 0.069,0.662"
             style="fill:#253769;fill-opacity:1;fill-rule:nonzero;stroke:none"
             id="path3337" /></g><g
           id="g3339"
           transform="translate(75.2939,155.4888)"><path
             d="M 0,0 C -0.184,-0.901 -0.657,-1.661 -1.421,-2.28 -2.185,-2.899 -3.01,-3.208 -3.896,-3.208 l 0.207,0 0,-0.023 c 0.702,-0.046 1.275,-0.302 1.718,-0.768 0.443,-0.466 0.665,-1.05 0.665,-1.753 0,-0.214 -0.023,-0.435 -0.069,-0.665 l -1.352,-6.416 c -0.764,0 -1.391,0.237 -1.879,0.71 -0.489,0.474 -0.734,1.078 -0.734,1.811 0,0.229 0.023,0.458 0.069,0.687 l 0.688,3.208 -9.625,0 -0.688,-3.196 c -0.183,-0.883 -0.653,-1.637 -1.409,-2.261 -0.757,-0.624 -1.578,-0.936 -2.464,-0.936 l 3.415,16.018 c 0.764,0 1.386,-0.24 1.868,-0.721 0.481,-0.482 0.721,-1.089 0.721,-1.822 0,-0.214 -0.023,-0.436 -0.068,-0.665 l -0.688,-3.208 9.625,0 L -3.208,0 c 0.198,0.865 0.679,1.612 1.443,2.241 0.764,0.63 1.581,0.945 2.453,0.945 L 0,0 z"
             style="fill:#ff6600;fill-opacity:1;fill-rule:nonzero;stroke:none"
             id="path3341" /></g><g
           id="g3343"
           transform="translate(91.8623,148.3618)"><path
             d="m 0,0 c 0.489,-0.474 0.733,-1.069 0.733,-1.787 0,-0.23 -0.03,-0.466 -0.091,-0.711 l -0.665,-3.208 c -0.764,0 -1.391,0.241 -1.879,0.722 -0.489,0.481 -0.734,1.088 -0.734,1.822 0,0.213 0.023,0.435 0.069,0.664 l 0.688,3.208 -9.625,0 -0.688,-3.196 c -0.183,-0.883 -0.653,-1.637 -1.409,-2.261 -0.756,-0.624 -1.578,-0.936 -2.463,-0.936 l 1.352,6.393 c 0.183,0.887 0.656,1.643 1.42,2.269 0.764,0.626 1.589,0.94 2.475,0.94 l 9.625,0 0.688,3.208 -9.625,0 c -0.765,0 -1.391,0.237 -1.879,0.71 -0.49,0.474 -0.734,1.07 -0.734,1.788 0,0.229 0.031,0.466 0.092,0.71 l 12.81,0 c 0.764,0 1.39,-0.244 1.88,-0.733 C 2.528,9.113 2.773,8.502 2.773,7.769 2.773,7.555 2.75,7.341 2.704,7.127 L 2.017,3.919 C 1.833,3.017 1.359,2.257 0.596,1.639 -0.168,1.02 -0.993,0.71 -1.879,0.71 -1.116,0.71 -0.489,0.474 0,0"
             style="fill:#ff6600;fill-opacity:1;fill-rule:nonzero;stroke:none"
             id="path3345" /></g><g
           id="g3347"
           transform="translate(109.9204,152.2808)"><path
             d="m 0,0 0.688,3.186 -9.626,0 L -9.625,0 0,0 z m -1.375,-6.405 0.687,3.197 -9.625,0 L -11,-6.405 c -0.183,-0.883 -0.653,-1.637 -1.409,-2.261 -0.757,-0.624 -1.578,-0.936 -2.464,-0.936 l 2.727,12.797 c 0.184,0.883 0.657,1.637 1.421,2.262 0.764,0.624 1.589,0.937 2.475,0.937 l 9.625,0 c 0.764,0 1.387,-0.24 1.868,-0.72 C 3.724,5.194 3.965,4.588 3.965,3.857 3.965,3.644 3.942,3.423 3.896,3.195 L 1.169,-9.602 c -0.764,0 -1.391,0.24 -1.879,0.719 -0.489,0.48 -0.734,1.085 -0.734,1.816 0,0.213 0.023,0.433 0.069,0.662"
             style="fill:#ff6600;fill-opacity:1;fill-rule:nonzero;stroke:none"
             id="path3349" /></g><g
           id="g3351"
           transform="translate(131.3013,157.7383)"><path
             d="M 0,0 C 0.764,0.624 1.589,0.936 2.475,0.936 L 1.1,-5.458 l -3.208,0 0.687,3.197 C -1.237,-1.378 -0.764,-0.625 0,0 m -5.316,-5.458 -3.209,0 0.688,3.197 c 0.183,0.883 0.656,1.636 1.42,2.261 0.764,0.624 1.589,0.936 2.476,0.936 l -1.375,-6.394 z m 3.208,0 3.208,0 -1.375,-6.416 c -0.183,-0.886 -0.653,-1.643 -1.409,-2.269 -0.756,-0.627 -1.578,-0.94 -2.464,-0.94 l -12.833,0.023 3.415,16.019 c 0.763,0 1.386,-0.241 1.867,-0.722 0.481,-0.481 0.722,-1.089 0.722,-1.821 0,-0.215 -0.023,-0.436 -0.069,-0.666 l -2.062,-9.624 3.208,0 1.375,6.416 3.209,0 -1.375,-6.416 3.208,0 1.375,6.416 z"
             style="fill:#ff6600;fill-opacity:1;fill-rule:nonzero;stroke:none"
             id="path3353" /></g><g
           id="g3355"
           transform="translate(148.9238,145.1309)"><path
             d="m 0,0 c 0.489,-0.489 0.734,-1.1 0.734,-1.833 0,-0.214 -0.023,-0.428 -0.069,-0.642 l -12.833,0 c -0.764,0 -1.391,0.241 -1.879,0.722 -0.49,0.481 -0.734,1.088 -0.734,1.822 0,0.213 0.023,0.435 0.069,0.664 l 2.063,9.625 c 0.183,0.886 0.657,1.642 1.42,2.269 0.764,0.626 1.588,0.939 2.475,0.939 L 4.08,13.543 C 3.881,12.664 3.403,11.913 2.647,11.291 1.891,10.669 1.07,10.358 0.184,10.358 l -9.625,0 -0.688,-3.208 9.625,0 C -0.688,6.264 -1.16,5.507 -1.925,4.881 -2.688,4.254 -3.514,3.941 -4.399,3.941 l -6.417,0 -0.688,-3.208 9.625,0 C -1.115,0.733 -0.488,0.489 0,0"
             style="fill:#ff6600;fill-opacity:1;fill-rule:nonzero;stroke:none"
             id="path3357" /></g><g
           id="g3359"
           transform="translate(168.334,145.8643)"><path
             d="m 0,0 c -0.198,-0.886 -0.672,-1.643 -1.42,-2.269 -0.749,-0.627 -1.566,-0.939 -2.453,-0.939 l -12.832,0.022 2.039,9.603 c 0.764,0 1.387,-0.241 1.867,-0.723 0.482,-0.481 0.723,-1.08 0.723,-1.798 0,-0.229 -0.024,-0.458 -0.07,-0.688 L -12.833,0 l 9.625,0 2.062,9.625 -9.625,0 c -0.764,0 -1.385,0.24 -1.868,0.722 -0.48,0.481 -0.72,1.08 -0.72,1.799 0,0.229 0.022,0.458 0.068,0.687 l 12.833,0 c 0.764,0 1.387,-0.241 1.868,-0.722 C 1.891,11.63 2.132,11.022 2.132,10.29 2.132,10.075 2.109,9.854 2.063,9.625 L 0,0 z"
             style="fill:#ff6600;fill-opacity:1;fill-rule:nonzero;stroke:none"
             id="path3361" /></g><g
           id="g3363"
           transform="translate(187.5381,145.8643)"><path
             d="m 0,0 c -0.199,-0.902 -0.673,-1.662 -1.421,-2.28 -0.748,-0.619 -1.566,-0.928 -2.452,-0.928 l -9.625,0 c -0.764,0 -1.39,0.24 -1.879,0.721 -0.489,0.482 -0.733,1.089 -0.733,1.822 0,0.214 0.023,0.436 0.068,0.665 l 0.688,3.208 c 0.214,0.901 0.695,1.662 1.444,2.28 0.748,0.619 1.565,0.929 2.452,0.929 l 9.625,0 0.687,3.208 -9.625,0 c -0.763,0 -1.386,0.236 -1.868,0.71 -0.481,0.474 -0.721,1.085 -0.721,1.833 0,0.214 0.023,0.436 0.068,0.665 l 12.834,0 c 0.764,0 1.386,-0.237 1.867,-0.71 0.482,-0.474 0.722,-1.078 0.722,-1.811 0,-0.229 -0.023,-0.458 -0.068,-0.687 L 1.375,6.417 C 1.191,5.515 0.718,4.755 -0.046,4.136 -0.81,3.518 -1.635,3.208 -2.521,3.208 l -9.625,0 L -12.833,0 0,0 z"
             style="fill:#ff6600;fill-opacity:1;fill-rule:nonzero;stroke:none"
             id="path3365" /></g><g
           id="g3367"
           transform="translate(194.9746,157.9756)"><path
             d="m 0,0 c 0.481,-0.481 0.722,-1.089 0.722,-1.822 0,-0.214 -0.023,-0.435 -0.069,-0.665 l -1.375,-6.416 -3.209,0 2.063,9.625 C -1.104,0.722 -0.481,0.481 0,0 m -3.931,-8.903 3.209,0 -1.352,-6.417 c -0.764,0 -1.391,0.241 -1.879,0.722 -0.489,0.481 -0.734,1.089 -0.734,1.822 0,0.213 0.023,0.435 0.069,0.665 l 0.687,3.208 z"
             style="fill:#ff6600;fill-opacity:1;fill-rule:nonzero;stroke:none"
             id="path3369" /></g><g
           id="g3371"
           transform="translate(147.4961,142.3896)"><path
             d="M 0,0 1.455,0 C 1.326,-0.398 1.262,-0.91 1.262,-1.537 c 0,-0.568 0.119,-0.992 0.359,-1.271 0.238,-0.276 0.582,-0.416 1.029,-0.416 0.407,0 0.846,0.081 1.321,0.246 l 0,-1.441 C 3.316,-4.724 2.688,-4.878 2.086,-4.878 c -0.77,0 -1.367,0.223 -1.795,0.674 -0.426,0.446 -0.641,1.057 -0.641,1.824 0,0.59 0.118,1.383 0.35,2.38"
             style="fill:#ff6600;fill-opacity:1;fill-rule:nonzero;stroke:none"
             id="path3373" /></g><g
           id="g3375"
           transform="translate(50.4072,131.5625)"><path
             d="m 0,0 c -0.015,-0.92 0.288,-1.596 1.293,-1.596 0.791,0 1.51,0.432 1.682,1.265 0.202,0.92 -0.532,1.15 -1.193,1.452 -1.006,0.46 -1.969,0.747 -1.667,2.156 0.259,1.265 1.437,1.969 2.616,1.969 1.25,0 1.826,-0.719 1.883,-1.883 L 3.637,3.09 C 3.622,3.823 3.334,4.341 2.515,4.341 1.897,4.341 1.236,4.024 1.092,3.349 0.934,2.645 1.322,2.429 1.84,2.185 L 3.292,1.48 C 3.881,1.106 4.125,0.503 3.953,-0.273 3.651,-1.696 2.487,-2.501 1.107,-2.501 c -1.395,0 -2.085,0.891 -2.027,2.228 L 0,0 z"
             style="fill:#253769;fill-opacity:1;fill-rule:nonzero;stroke:none"
             id="path3377" /></g><g
           id="g3379"
           transform="translate(62.6133,135.8174)"><path
             d="m 0,0 -3.507,0 0.187,0.862 5.102,0 -5.303,-6.627 4.01,0 -0.187,-0.862 -5.635,0 L 0,0 z"
             style="fill:#253769;fill-opacity:1;fill-rule:nonzero;stroke:none"
             id="path3381" /></g><g
           id="g3383"
           transform="translate(68.624,133.4883)"><path
             d="M 0,0 0.359,0 3.651,3.378 4.255,2.803 1.092,-0.345 3.263,-3.866 2.4,-4.484 0.158,-0.79 l -0.33,0 -0.748,-3.508 -0.963,0 1.595,7.489 0.964,0 L 0,0 z"
             style="fill:#253769;fill-opacity:1;fill-rule:nonzero;stroke:none"
             id="path3385" /></g><g
           id="g3387"
           transform="translate(76.4893,132.9277)"><path
             d="M 0,0 C -0.23,-1.092 -0.431,-2.961 1.021,-2.961 2.472,-2.961 3.076,-1.092 3.306,0 3.55,1.106 3.737,2.976 2.286,2.976 0.833,2.976 0.244,1.106 0,0 M 4.312,0 C 4.183,-0.604 3.45,-3.866 0.833,-3.866 -0.374,-3.866 -1.639,-3.004 -1.006,0 -0.374,2.99 1.25,3.881 2.487,3.881 3.68,3.881 4.959,3.019 4.312,0"
             style="fill:#253769;fill-opacity:1;fill-rule:nonzero;stroke:none"
             id="path3389" /></g><g
           id="g3391"
           transform="translate(85.7056,136.6797)"><path
             d="m 0,0 0.963,0 -1.409,-6.627 3.925,0 -0.187,-0.862 -4.888,0 L 0,0 z"
             style="fill:#253769;fill-opacity:1;fill-rule:nonzero;stroke:none"
             id="path3393" /></g><g
           id="g3395"
           transform="translate(95.9565,135.5586)"><path
             d="m 0,0 -1.796,-3.465 2.127,0 L 0,0 z m -2.242,-4.327 -1.179,-2.228 -0.876,0.345 3.923,7.331 1.237,0 0.79,-7.331 -1.02,-0.345 -0.216,2.228 -2.659,0 z"
             style="fill:#253769;fill-opacity:1;fill-rule:nonzero;stroke:none"
             id="path3397" /></g><g
           id="g3399"
           transform="translate(102.3271,136.6797)"><path
             d="m 0,0 1.193,0 1.552,-6.311 0.044,0.03 0.33,1.94 0.92,4.341 0.963,0 -1.596,-7.489 -1.193,0 -1.567,6.31 -0.028,-0.029 -0.331,-1.954 -0.92,-4.327 -0.963,0 L 0,0 z"
             style="fill:#ff6600;fill-opacity:1;fill-rule:nonzero;stroke:none"
             id="path3401" /></g><g
           id="g3403"
           transform="translate(113.2104,135.5586)"><path
             d="m 0,0 -1.796,-3.465 2.127,0 L 0,0 z m -2.242,-4.327 -1.179,-2.228 -0.876,0.345 3.923,7.331 1.237,0 0.79,-7.331 -1.02,-0.345 -0.216,2.228 -2.659,0 z"
             style="fill:#ff6600;fill-opacity:1;fill-rule:nonzero;stroke:none"
             id="path3405" /></g><g
           id="g3407"
           transform="translate(121.4063,133.2588)"><path
             d="M 0,0 C 0.949,0 1.667,0.531 1.854,1.38 1.998,2.055 1.696,2.559 0.834,2.559 l -1.553,0 L -1.265,0 0,0 z m -1.495,3.421 2.544,0 C 2.3,3.421 3.162,2.831 2.86,1.38 2.659,0.46 1.854,-0.446 0.891,-0.719 l 1.193,-3.033 -0.948,-0.503 -1.194,3.393 -1.394,0 -0.675,-3.206 -0.963,0 1.595,7.489 z"
             style="fill:#ff6600;fill-opacity:1;fill-rule:nonzero;stroke:none"
             id="path3409" /></g><g
           id="g3411"
           transform="translate(132.103,130.6279)"><path
             d="m 0,0 c -0.805,-0.948 -1.653,-1.566 -2.817,-1.566 -2.185,0 -2.444,2.011 -2.056,3.866 0.633,2.99 2.415,3.881 3.623,3.881 1.164,0 1.71,-0.604 2.026,-1.596 L -0.201,4.14 c -0.187,0.603 -0.503,1.135 -1.236,1.135 -1.495,0 -2.185,-1.811 -2.429,-2.961 -0.245,-1.164 -0.36,-2.975 1.164,-2.975 0.877,0 1.437,0.532 2.027,1.207 L 0,0 z"
             style="fill:#ff6600;fill-opacity:1;fill-rule:nonzero;stroke:none"
             id="path3413" /></g><g
           id="g3415"
           transform="translate(136.3892,130.0527)"><path
             d="m 0,0 1.049,0 1.222,5.765 -1.049,0 0.187,0.862 3.076,0 -0.187,-0.862 -1.064,0 L 2.012,0 3.076,0 2.889,-0.862 l -3.076,0 L 0,0 z"
             style="fill:#ff6600;fill-opacity:1;fill-rule:nonzero;stroke:none"
             id="path3417" /></g><g
           id="g3419"
           transform="translate(147.7188,135.5586)"><path
             d="m 0,0 -1.797,-3.465 2.127,0 L 0,0 z m -2.242,-4.327 -1.18,-2.228 -0.876,0.345 3.924,7.331 1.236,0 0.79,-7.331 -1.019,-0.345 -0.217,2.228 -2.658,0 z"
             style="fill:#ff6600;fill-opacity:1;fill-rule:nonzero;stroke:none"
             id="path3421" /></g><g
           id="g3423"
           transform="translate(155.9141,133.2588)"><path
             d="M 0,0 C 0.949,0 1.668,0.531 1.854,1.38 1.998,2.055 1.696,2.559 0.834,2.559 l -1.553,0 L -1.265,0 0,0 z m -1.494,3.421 2.543,0 C 2.3,3.421 3.162,2.831 2.86,1.38 2.659,0.46 1.854,-0.446 0.891,-0.719 l 1.193,-3.033 -0.948,-0.503 -1.194,3.393 -1.393,0 -0.676,-3.206 -0.963,0 1.596,7.489 z"
             style="fill:#ff6600;fill-opacity:1;fill-rule:nonzero;stroke:none"
             id="path3425" /></g><g
           id="g3427"
           transform="translate(162.5576,131.5625)"><path
             d="m 0,0 c -0.015,-0.92 0.288,-1.596 1.294,-1.596 0.79,0 1.509,0.432 1.682,1.265 0.201,0.92 -0.533,1.15 -1.194,1.452 -1.006,0.46 -1.969,0.747 -1.668,2.156 0.26,1.265 1.438,1.969 2.617,1.969 1.25,0 1.826,-0.719 1.883,-1.883 L 3.637,3.09 C 3.622,3.823 3.335,4.341 2.515,4.341 1.897,4.341 1.236,4.024 1.093,3.349 0.935,2.645 1.322,2.429 1.84,2.185 L 3.292,1.48 C 3.881,1.106 4.125,0.503 3.952,-0.273 3.651,-1.696 2.487,-2.501 1.106,-2.501 c -1.394,0 -2.084,0.891 -2.026,2.228 L 0,0 z"
             style="fill:#ff6600;fill-opacity:1;fill-rule:nonzero;stroke:none"
             id="path3429" /></g><g
           id="g3431"
           transform="translate(172.1475,133.4883)"><path
             d="M 0,0 0.359,0 3.651,3.378 4.255,2.803 1.093,-0.345 3.263,-3.866 2.4,-4.484 0.158,-0.79 l -0.331,0 -0.747,-3.508 -0.963,0 1.595,7.489 0.964,0 L 0,0 z"
             style="fill:#ff6600;fill-opacity:1;fill-rule:nonzero;stroke:none"
             id="path3433" /></g><g
           id="g3435"
           transform="translate(182.2266,135.5586)"><path
             d="m 0,0 -1.797,-3.465 2.127,0 L 0,0 z m -2.242,-4.327 -1.18,-2.228 -0.876,0.345 3.924,7.331 1.236,0 0.79,-7.331 -1.019,-0.345 -0.217,2.228 -2.658,0 z"
             style="fill:#ff6600;fill-opacity:1;fill-rule:nonzero;stroke:none"
             id="path3437" /></g><g
           id="g3439"
           transform="translate(88.8843,133.5527)"><path
             d="M 0,0 -4.661,-2.148 -4.872,-1.692 -0.21,0.456 0,0 z"
             style="fill:#253769;fill-opacity:1;fill-rule:nonzero;stroke:none"
             id="path3441" /></g></g></g></g></svg>